<svg width="31" height="8" viewBox="0 0 31 8" fill="none" xmlns="http://www.w3.org/2000/svg">
<path d="M23.1964 0.0311912C23.4107 -0.0208894 23.6429 -5.36442e-05 23.8214 0.0832719L30.6786 3.7291C30.7857 3.79161 30.8572 3.87494 30.8572 3.96869C30.8572 4.06244 30.7857 4.15619 30.6786 4.21868L23.8214 7.9166C23.6429 7.99992 23.4107 8.02076 23.1964 7.96868C23 7.9166 22.8572 7.80201 22.8572 7.6666V5.33327L0.571437 5.33327C0.25 5.33327 0 5.18744 0 4.99993L0 2.99994C0 2.81243 0.25 2.6666 0.571437 2.6666L22.8572 2.6666V0.333267C22.8572 0.197842 22.9822 0.0832719 23.1964 0.0311912Z" fill="white"/>
</svg>
